<svg xmlns="http://www.w3.org/2000/svg" viewBox="0 0 465 465" fill="#fff"><path d="M240 356V132.2a7.5 7.5 0 1 0-15 0v224a7.5 7.5 0 1 0 15 0z"/><path d="M457.5 75.8c-15.9 0-35.6-6.9-56.5-14.1-26.5-9.2-56.6-19.6-87.7-19.6a91.4 91.4 0 0 0-80.8 43.4A91.4 91.4 0 0 0 151.7 42c-31.1 0-61.2 10.4-87.7 19.6-20.9 7.2-40.6 14-56.5 14A7.5 7.5 0 0 0 0 83.4v302c0 4.2 3.4 7.6 7.5 7.6 18.4 0 39.3-7.3 61.4-15 25.4-8.7 54.2-18.7 82.8-18.7 24.5 0 44.4 8.1 59 24.2a7.5 7.5 0 0 0 11.1-10.1 91.4 91.4 0 0 0-70.1-29c-31.1 0-61.2 10.3-87.7 19.5-17.7 6.1-34.6 12-49 13.6v-287c16.5-1.6 34.8-7.9 54-14.5C94.2 67 123 57 151.6 57c57.9 0 73 46 73.6 48a7.5 7.5 0 0 0 14.4 0c.1-.6 15.4-48 73.6-48 28.6 0 57.4 10 82.8 18.8 19.1 6.6 37.4 13 53.9 14.5v287a250.3 250.3 0 0 1-49-13.6c-26.5-9.2-56.6-19.6-87.7-19.6-36 0-58 15.8-70.1 29a7.5 7.5 0 0 0 11 10.2 76.4 76.4 0 0 1 59.1-24.2c28.6 0 57.4 10 82.8 18.8 22.1 7.6 43 14.9 61.4 14.9 4.1 0 7.5-3.4 7.5-7.5V83.3c0-4.2-3.4-7.5-7.5-7.5z"/><path d="M457.5 407.9c-15.9 0-35.6-6.9-56.5-14.1-26.5-9.2-56.6-19.6-87.7-19.6-33.8 0-55.3 14-67.8 26.6h-26a91.9 91.9 0 0 0-67.8-26.6c-31.1 0-61.2 10.4-87.7 19.6-20.9 7.2-40.6 14-56.5 14a7.5 7.5 0 1 0 0 15c18.4 0 39.3-7.2 61.4-14.8 25.4-8.8 54.2-18.8 82.8-18.8 24.5 0 44.4 8.1 59 24.2a7.5 7.5 0 0 0 5.6 2.4h32.4c2.1 0 4.1-.9 5.6-2.4a76.4 76.4 0 0 1 59-24.2c28.6 0 57.4 10 82.8 18.8 22.1 7.6 43 14.9 61.4 14.9a7.5 7.5 0 1 0 0-15z"/></svg>